# xmcd
#
# Track frame offsets: 
#        150
#        18147
#        37232
#        54782
#        73485
#        90782
#        113205
#        123352
#        139505
#        156287
#        182512
#        206057
#        225190
#
# Disc length: 3195 seconds
#
# Revision: 2
# Processed by: cddbd v1.5.2PL0 Copyright (c) Steve Scherf et al.
# Submitted via: ExactAudioCopyFreeDBPlugin 1.0
#
DISCID=a20c790d
DTITLE=Youssou N'dour - Nothing In Vain
DYEAR=2002
DGENRE=Rock
TTITLE0=Heat, Breeze, Tenderness
TTITLE1=Mr. Everywhere
TTITLE2=As in a Mirror
TTITLE3=For Those Displaced
TTITLE4=Women Are the Future of Love
TTITLE5=Because Love's Like That
TTITLE6=There Is No Happy Love
TTITLE7=Honor Her
TTITLE8=It's Love
TTITLE9=Show Your True Mettle
TTITLE10=So Many Men
TTITLE11=The Making of Respect
TTITLE12=Africa, Dream Again
EXTD=
EXTT0=
EXTT1=
EXTT2=
EXTT3=
EXTT4=
EXTT5=
EXTT6=
EXTT7=
EXTT8=
EXTT9=
EXTT10=
EXTT11=
EXTT12=
PLAYORDER=
